<svg id="Capa_1" enable-background="new 0 0 512 512" height="512" viewBox="0 0 512 512" width="512" xmlns="http://www.w3.org/2000/svg"><g><path d="m445 93-120-90c-2.534-1.899-5.766-3-9-3h-240c-8.284 0-15 6.716-15 15v482c0 8.284 6.716 15 15 15h360c8.284 0 15-6.716 15-15v-391.898c0-4.426-1.995-9.096-6-12.102zm-114-48 60 45h-60zm-240 437v-452h210v75c0 8.284 6.716 15 15 15h105v362z"/><path d="m346 241h-15v-15c0-41.355-33.645-75-75-75s-75 33.645-75 75v15h-15c-8.284 0-15 6.716-15 15v150c0 8.284 6.716 15 15 15h180c8.284 0 15-6.716 15-15v-150c0-8.284-6.716-15-15-15zm-135-15c0-24.813 20.187-45 45-45s45 20.187 45 45v15h-90zm120 165h-150v-120h150z"/><path d="m256 301c-8.284 0-15 6.716-15 15v30c0 8.284 6.716 15 15 15s15-6.716 15-15v-30c0-8.284-6.716-15-15-15z"/></g></svg>