<svg height="480pt" viewBox="0 0 480 480" width="480pt" xmlns="http://www.w3.org/2000/svg"><path d="m240 7.996094-232 80v32h464v-32zm0 0" fill="#c3e0f6"/><path d="m16 439.996094h448v32h-448zm0 0" fill="#c3e0f6"/><path d="m40 151.996094v256h400v-256zm200 232c-57.4375 0-104-46.5625-104-104s46.5625-104 104-104 104 46.5625 104 104-46.5625 104-104 104zm0 0" fill="#c3e0f6"/><path d="m240 291.558594v-11.5625c-4.527344-.011719-9.003906-.992188-13.121094-2.878906 2.761719 6.0625 7.347656 11.113281 13.121094 14.441406zm0 0" fill="#c3e0f6"/><g fill="#4b7493"><path d="m264 247.996094c0 4.417968 3.582031 8 8 8s8-3.582032 8-8c-.023438-19-13.386719-35.371094-32-39.199219v-8.800781c0-4.417969-3.582031-8-8-8s-8 3.582031-8 8v8.800781c-18.644531 3.785156-32.039062 20.175781-32.039062 39.199219 0 19.023437 13.394531 35.414062 32.039062 39.199218v47.335938c-9.558594-3.378906-15.960938-12.398438-16-22.535156 0-4.417969-3.582031-8-8-8s-8 3.582031-8 8c.023438 19 13.386719 35.375 32 39.199218v8.800782c0 4.417968 3.582031 8 8 8s8-3.582032 8-8v-8.800782c18.644531-3.785156 32.039062-20.175781 32.039062-39.199218 0-19.023438-13.394531-35.414063-32.039062-39.199219v-47.328125c9.554688 3.378906 15.957031 12.394531 16 22.527344zm-48 0c.042969-10.132813 6.445312-19.148438 16-22.527344v45.054688c-9.554688-3.375-15.957031-12.390626-16-22.527344zm48 64c-.042969 10.136718-6.445312 19.152344-16 22.527344v-45.054688c9.554688 3.378906 15.957031 12.394531 16 22.527344zm0 0"/><path d="m240 167.996094c-61.855469 0-112 50.144531-112 112 0 61.855468 50.144531 112 112 112s112-50.144532 112-112c-.066406-61.828125-50.171875-111.933594-112-112zm0 208c-53.019531 0-96-42.980469-96-96 0-53.019532 42.980469-96 96-96s96 42.980468 96 96c-.058594 52.996094-43.003906 95.945312-96 96zm0 0"/><path d="m472 463.996094v-24c0-4.417969-3.582031-8-8-8h-448c-4.417969 0-8 3.582031-8 8v24c-4.417969 0-8 3.582031-8 8 0 4.417968 3.582031 8 8 8h464c4.417969 0 8-3.582032 8-8 0-4.417969-3.582031-8-8-8zm-448 0v-16h432v16zm0 0"/><path d="m474.609375 80.4375-232-80c-1.691406-.582031-3.527344-.582031-5.21875 0l-232 80c-3.222656 1.113281-5.390625 4.148438-5.390625 7.558594v32c0 4.417968 3.582031 8 8 8h464c4.417969 0 8-3.582032 8-8v-32c0-3.410156-2.167969-6.445313-5.390625-7.558594zm-10.609375 31.558594h-448v-18.296875l224-77.238281 224 77.238281zm0 0"/><path d="m440 415.996094c4.417969 0 8-3.582032 8-8v-256c0-4.417969-3.582031-8-8-8h-400c-4.417969 0-8 3.582031-8 8v256c0 4.417968 3.582031 8 8 8zm-392-256h384v240h-384zm0 0"/></g></svg>