<?xml version="1.0" encoding="UTF-8" standalone="no"?>
<!-- Created with Inkscape (http://www.inkscape.org/) -->

<svg
   xmlns:dc="http://purl.org/dc/elements/1.1/"
   xmlns:cc="http://creativecommons.org/ns#"
   xmlns:rdf="http://www.w3.org/1999/02/22-rdf-syntax-ns#"
   xmlns:svg="http://www.w3.org/2000/svg"
   xmlns="http://www.w3.org/2000/svg"
   xmlns:sodipodi="http://sodipodi.sourceforge.net/DTD/sodipodi-0.dtd"
   xmlns:inkscape="http://www.inkscape.org/namespaces/inkscape"
   width="100"
   height="100"
   id="svg4893"
   version="1.1"
   inkscape:version="0.48.5 r10040"
   sodipodi:docname="Gear.svg">
  <defs
     id="defs4895" />
  <sodipodi:namedview
     id="base"
     pagecolor="#ffffff"
     bordercolor="#666666"
     borderopacity="1.0"
     inkscape:pageopacity="0.0"
     inkscape:pageshadow="2"
     inkscape:zoom="5.6568542"
     inkscape:cx="18.847533"
     inkscape:cy="34.697174"
     inkscape:document-units="px"
     inkscape:current-layer="layer1"
     showgrid="false"
     inkscape:window-width="1851"
     inkscape:window-height="1058"
     inkscape:window-x="-8"
     inkscape:window-y="-8"
     inkscape:window-maximized="1"
     fit-margin-top="0"
     fit-margin-left="0"
     fit-margin-right="0"
     fit-margin-bottom="0">
    <inkscape:grid
       type="xygrid"
       id="grid4938"
       empspacing="5"
       visible="true"
       enabled="true"
       snapvisiblegridlinesonly="true"
       originx="-190px"
       originy="-895px" />
  </sodipodi:namedview>
  <metadata
     id="metadata4898">
    <rdf:RDF>
      <cc:Work
         rdf:about="">
        <dc:format>image/svg+xml</dc:format>
        <dc:type
           rdf:resource="http://purl.org/dc/dcmitype/StillImage" />
        <dc:title></dc:title>
      </cc:Work>
    </rdf:RDF>
  </metadata>
  <g
     inkscape:groupmode="layer"
     id="layer5"
     inkscape:label="레이어"
     transform="translate(-190,-57.362183)"
     style="display:inline" />
  <g
     inkscape:label="Layer 1"
     inkscape:groupmode="layer"
     id="layer1"
     style="display:inline"
     transform="translate(-190,-57.362183)">
    <g
       id="g5056"
       transform="matrix(0.58888684,-0.11126615,0.11126615,0.58888684,60.839378,60.775183)">
      <path
         inkscape:connector-curvature="0"
         id="path4994"
         d="m 239.94975,77.829058 c -2.07107,0 -4.07832,0.194123 -6.03125,0.59375 l -2.0625,5.78125 c -1.01664,0.358975 -2.01766,0.764723 -2.96875,1.25 l -5.53125,-2.625 c -3.3458,2.224103 -6.21807,5.088328 -8.4375,8.4375 l 2.78125,5.8125 c -0.3893,0.82805 -0.73212,1.68722 -1.03125,2.5625 l -6.09375,2.156252 c -0.39564,1.94361 -0.625,3.97081 -0.625,6.03125 0,2.02653 0.21071,3.99242 0.59375,5.90625 l 6.09375,2.15625 c 0.3031,0.90053 0.63292,1.77407 1.03125,2.625 l -2.75,5.8125 c 2.20072,3.32726 5.03064,6.21721 8.34375,8.4375 l 5.5625,-2.625 c 0.98078,0.50396 2.01173,0.94323 3.0625,1.3125 l 2.0625,5.75 c 1.94361,0.39564 3.93956,0.625 6,0.625 2.00527,0 3.94863,-0.21851 5.84375,-0.59375 l 2.03125,-5.71875 c 1.0939,-0.37455 2.16844,-0.8238 3.1875,-1.34375 l 5.5625,2.625 c 3.29929,-2.20001 6.14093,-5.0465 8.34375,-8.34375 l -2.75,-5.78125 0,-0.0312 c 0.43259,-0.91078 0.80209,-1.84444 1.125,-2.8125 l 6.0625,-2.15625 c 0.37524,-1.89517 0.59375,-3.83853 0.59375,-5.8438 0,-2.03715 -0.20679,-4.04558 -0.59375,-5.96875 l -6.09375,-2.156252 c -0.32235,-0.95188 -0.6964,-1.88522 -1.125,-2.78125 l 2.75,-5.78125 c -2.22029,-3.313113 -5.07899,-6.143027 -8.40625,-8.34375 l -5.53125,2.625 c -0.98984,-0.501498 -2.03358,-0.916564 -3.09375,-1.28125 l -2.03125,-5.75 c -1.90431,-0.37906 -3.85929,-0.5625 -5.875,-0.5625 z"
         style="fill:#501616;stroke:#be0000;stroke-width:0;stroke-miterlimit:4;stroke-opacity:1;stroke-dasharray:none" />
      <path
         transform="matrix(1.5,0,0,1.5,-45.050253,-113.23207)"
         d="m 195,147.36218 c 0,2.76143 -2.23858,5 -5,5 -2.76142,0 -5,-2.23857 -5,-5 0,-2.76142 2.23858,-5 5,-5 2.76142,0 5,2.23858 5,5 z"
         sodipodi:ry="5"
         sodipodi:rx="5"
         sodipodi:cy="147.36218"
         sodipodi:cx="190"
         id="path5016"
         style="fill:#ffffff;stroke:#be0000;stroke-width:0;stroke-miterlimit:4;stroke-opacity:1;stroke-dasharray:none"
         sodipodi:type="arc" />
    </g>
    <g
       transform="translate(16.263456,10.960155)"
       id="g5060">
      <path
         style="fill:#501616;stroke:#be0000;stroke-width:0;stroke-miterlimit:4;stroke-opacity:1;stroke-dasharray:none"
         d="m 239.94975,77.829058 c -2.07107,0 -4.07832,0.194123 -6.03125,0.59375 l -2.0625,5.78125 c -1.01664,0.358975 -2.01766,0.764723 -2.96875,1.25 l -5.53125,-2.625 c -3.3458,2.224103 -6.21807,5.088328 -8.4375,8.4375 l 2.78125,5.8125 c -0.3893,0.82805 -0.73212,1.68722 -1.03125,2.5625 l -6.09375,2.156252 c -0.39564,1.94361 -0.625,3.97081 -0.625,6.03125 0,2.02653 0.21071,3.99242 0.59375,5.90625 l 6.09375,2.15625 c 0.3031,0.90053 0.63292,1.77407 1.03125,2.625 l -2.75,5.8125 c 2.20072,3.32726 5.03064,6.21721 8.34375,8.4375 l 5.5625,-2.625 c 0.98078,0.50396 2.01173,0.94323 3.0625,1.3125 l 2.0625,5.75 c 1.94361,0.39564 3.93956,0.625 6,0.625 2.00527,0 3.94863,-0.21851 5.84375,-0.59375 l 2.03125,-5.71875 c 1.0939,-0.37455 2.16844,-0.8238 3.1875,-1.34375 l 5.5625,2.625 c 3.29929,-2.20001 6.14093,-5.0465 8.34375,-8.34375 l -2.75,-5.78125 0,-0.0312 c 0.43259,-0.91078 0.80209,-1.84444 1.125,-2.8125 l 6.0625,-2.15625 c 0.37524,-1.89517 0.59375,-3.83853 0.59375,-5.8438 0,-2.03715 -0.20679,-4.04558 -0.59375,-5.96875 l -6.09375,-2.156252 c -0.32235,-0.95188 -0.6964,-1.88522 -1.125,-2.78125 l 2.75,-5.78125 c -2.22029,-3.313113 -5.07899,-6.143027 -8.40625,-8.34375 l -5.53125,2.625 c -0.98984,-0.501498 -2.03358,-0.916564 -3.09375,-1.28125 l -2.03125,-5.75 c -1.90431,-0.37906 -3.85929,-0.5625 -5.875,-0.5625 z"
         id="path5062"
         inkscape:connector-curvature="0" />
      <path
         sodipodi:type="arc"
         style="fill:#ffffff;stroke:#be0000;stroke-width:0;stroke-miterlimit:4;stroke-opacity:1;stroke-dasharray:none"
         id="path5064"
         sodipodi:cx="190"
         sodipodi:cy="147.36218"
         sodipodi:rx="5"
         sodipodi:ry="5"
         d="m 195,147.36218 c 0,2.76143 -2.23858,5 -5,5 -2.76142,0 -5,-2.23857 -5,-5 0,-2.76142 2.23858,-5 5,-5 2.76142,0 5,2.23858 5,5 z"
         transform="matrix(1.5,0,0,1.5,-45.050253,-113.23207)" />
    </g>
    <g
       transform="matrix(0.40929926,-0.0773343,0.0773343,0.40929926,134.45972,52.016113)"
       id="g5066">
      <path
         style="fill:#501616;stroke:#be0000;stroke-width:0;stroke-miterlimit:4;stroke-opacity:1;stroke-dasharray:none"
         d="m 239.94975,77.829058 c -2.07107,0 -4.07832,0.194123 -6.03125,0.59375 l -2.0625,5.78125 c -1.01664,0.358975 -2.01766,0.764723 -2.96875,1.25 l -5.53125,-2.625 c -3.3458,2.224103 -6.21807,5.088328 -8.4375,8.4375 l 2.78125,5.8125 c -0.3893,0.82805 -0.73212,1.68722 -1.03125,2.5625 l -6.09375,2.156252 c -0.39564,1.94361 -0.625,3.97081 -0.625,6.03125 0,2.02653 0.21071,3.99242 0.59375,5.90625 l 6.09375,2.15625 c 0.3031,0.90053 0.63292,1.77407 1.03125,2.625 l -2.75,5.8125 c 2.20072,3.32726 5.03064,6.21721 8.34375,8.4375 l 5.5625,-2.625 c 0.98078,0.50396 2.01173,0.94323 3.0625,1.3125 l 2.0625,5.75 c 1.94361,0.39564 3.93956,0.625 6,0.625 2.00527,0 3.94863,-0.21851 5.84375,-0.59375 l 2.03125,-5.71875 c 1.0939,-0.37455 2.16844,-0.8238 3.1875,-1.34375 l 5.5625,2.625 c 3.29929,-2.20001 6.14093,-5.0465 8.34375,-8.34375 l -2.75,-5.78125 0,-0.0312 c 0.43259,-0.91078 0.80209,-1.84444 1.125,-2.8125 l 6.0625,-2.15625 c 0.37524,-1.89517 0.59375,-3.83853 0.59375,-5.8438 0,-2.03715 -0.20679,-4.04558 -0.59375,-5.96875 l -6.09375,-2.156252 c -0.32235,-0.95188 -0.6964,-1.88522 -1.125,-2.78125 l 2.75,-5.78125 c -2.22029,-3.313113 -5.07899,-6.143027 -8.40625,-8.34375 l -5.53125,2.625 c -0.98984,-0.501498 -2.03358,-0.916564 -3.09375,-1.28125 l -2.03125,-5.75 c -1.90431,-0.37906 -3.85929,-0.5625 -5.875,-0.5625 z"
         id="path5068"
         inkscape:connector-curvature="0" />
      <path
         sodipodi:type="arc"
         style="fill:#ffffff;stroke:#be0000;stroke-width:0;stroke-miterlimit:4;stroke-opacity:1;stroke-dasharray:none"
         id="path5070"
         sodipodi:cx="190"
         sodipodi:cy="147.36218"
         sodipodi:rx="5"
         sodipodi:ry="5"
         d="m 195,147.36218 c 0,2.76143 -2.23858,5 -5,5 -2.76142,0 -5,-2.23857 -5,-5 0,-2.76142 2.23858,-5 5,-5 2.76142,0 5,2.23858 5,5 z"
         transform="matrix(1.5,0,0,1.5,-45.050253,-113.23207)" />
    </g>
  </g>
</svg>
